<svg id="garageVector" viewBox="75 50 500 400">
	<g id="Frame" stroke="#ffffff" fill="black">
		<path fill="none" stroke-width="9" stroke-linecap="square" stroke-linejoin="round" stroke-miterlimit="10" d="
			M558,424.398c0,5.924-5.373,10.727-12,10.727H120c-6.627,0-12-4.803-12-10.727V244.727c0-5.924,5.373-10.727,12-10.727h426
			c6.627,0,12,4.803,12,10.727V424.398z"/>
	
			<line fill="none" stroke-width="20" stroke-linecap="round" stroke-linejoin="round" stroke-miterlimit="10" x1="333" y1="72" x2="594" y2="270"/>
			<line fill="none" stroke-width="20" stroke-linecap="round" stroke-linejoin="round" stroke-miterlimit="10" x1="63" y1="270" x2="333" y2="72"/>
						
		<g display="none">
			<path display="inline" fill="#010101" d="M271.269,160.987v27.162c0,9.353,10.142,16.947,22.667,16.947h79.396
				c12.505,0,22.668-7.599,22.668-16.947v-27.162c0-9.363-10.163-16.987-22.668-16.987h-79.396
				C281.41,144,271.269,151.624,271.269,160.987z M293.936,157.581h30.635v10.179h-35.187v-6.772
				C289.391,159.153,291.465,157.581,293.936,157.581z M289.391,188.149v-6.813h35.193v10.195h-30.642
				C291.465,191.525,289.391,189.983,289.391,188.149z M373.332,191.525h-30.633v-10.199h35.172v6.817
				C377.864,189.983,375.778,191.525,373.332,191.525z M377.864,160.987v6.772h-35.18v-10.179h30.641
				C375.778,157.581,377.864,159.153,377.864,160.987z"/>
			<g display="inline">
				<path d="M269.807,161.122c0,5.994,0,11.987,0,17.981c0,5.979-0.753,11.943,2.524,17.25c6.926,11.214,22.146,9.717,33.487,9.717
					c15.469,0,30.938,0,46.406,0c9.775,0,22.586,1.773,31.875-2.002c7.195-2.925,13.361-8.526,13.361-16.778
					c0-6.939,0-13.879,0-20.818c0-6.83-0.269-12.305-5.78-17.309c-5.146-4.672-12.365-6.136-19.099-6.136c-25.415,0-50.83,0-76.245,0
					C285.13,143.026,270.408,147.771,269.807,161.122c-0.063,1.413,2.869,0.919,2.923-0.27c0.8-17.785,22.764-15.878,35.394-15.878
					c15.565,0,31.13,0,46.696,0c12.214,0,27.991-2.353,36.75,8.062c4.389,5.219,2.97,13.865,2.97,20.179
					c0,5.935,0.869,12.64-0.462,18.481c-3.386,14.87-24.223,12.426-35.731,12.426c-15.3,0-30.599,0-45.897,0
					c-11.505,0-25.944,2.088-35.126-6.233c-5.577-5.055-4.592-12.31-4.592-19.055c0-5.993,0-11.987,0-17.98
					C272.73,159.428,269.807,159.943,269.807,161.122z"/>
				<path d="M293.413,158.555c10.212,0,20.423,0,30.635,0c-0.313-0.28-0.625-0.56-0.938-0.839c0,3.393,0,6.786,0,10.179
					c0.662-0.37,1.323-0.739,1.984-1.109c-11.729,0-23.458,0-35.187,0c0.313,0.28,0.625,0.56,0.938,0.839
					c0-2.739-1.337-8.536,2.938-9.072c1.537-0.193,2.29-2.193,0.305-1.944c-6.906,0.866-6.166,5.668-6.166,11.286
					c0,0.515,0.428,0.839,0.938,0.839c11.729,0,23.458,0,35.187,0c0.595,0,1.984-0.255,1.984-1.109c0-3.393,0-6.786,0-10.179
					c0-0.515-0.428-0.839-0.938-0.839c-10.212,0-20.423,0-30.635,0C293.176,156.606,291.453,158.555,293.413,158.555z"/>
				<path d="M290.852,188.014c0-2.271,0-4.542,0-6.813c-0.662,0.37-1.323,0.739-1.984,1.109c11.731,0,23.462,0,35.193,0
					c-0.313-0.28-0.625-0.56-0.938-0.839c0,3.398,0,6.796,0,10.195c0.662-0.37,1.323-0.739,1.984-1.109c-5.107,0-10.214,0-15.321,0
					c-3.634,0-7.269,0-10.902,0c-2.369,0-7.248,0.775-8.044-2.796c-0.275-1.232-3.178-0.479-2.897,0.776
					c1.303,5.838,11.594,3.968,15.881,3.968c6.746,0,13.492,0,20.238,0c0.595,0,1.984-0.255,1.984-1.109c0-3.398,0-6.796,0-10.195
					c0-0.515-0.428-0.839-0.938-0.839c-11.731,0-23.462,0-35.193,0c-0.595,0-1.984,0.255-1.984,1.109c0,2.271,0,4.542,0,6.813
					C287.929,189.708,290.852,189.193,290.852,188.014z"/>
				<path d="M373.854,190.551c-10.211,0-20.422,0-30.633,0c0.313,0.28,0.626,0.56,0.938,0.839c0-3.4,0-6.799,0-10.199
					c-0.661,0.37-1.322,0.739-1.983,1.109c11.724,0,23.447,0,35.172,0c-0.313-0.28-0.626-0.56-0.938-0.839
					c0,2.736,1.345,8.562-2.926,9.092c-1.537,0.191-2.29,2.191-0.305,1.944c6.916-0.858,6.152-5.687,6.152-11.306
					c0-0.515-0.427-0.839-0.938-0.839c-11.724,0-23.447,0-35.172,0c-0.595,0-1.983,0.255-1.983,1.109c0,3.4,0,6.799,0,10.199
					c0,0.515,0.427,0.839,0.938,0.839c10.211,0,20.422,0,30.633,0C374.092,192.5,375.814,190.551,373.854,190.551z"/>
				<path d="M376.403,161.122c0,2.257,0,4.515,0,6.772c0.661-0.37,1.322-0.739,1.983-1.109c-11.727,0-23.453,0-35.18,0
					c0.313,0.28,0.626,0.56,0.938,0.839c0-3.393,0-6.786,0-10.179c-0.661,0.37-1.322,0.739-1.983,1.109c5.106,0,10.213,0,15.32,0
					c3.634,0,7.268,0,10.901,0c2.389,0,7.227-0.78,8.031,2.821c0.275,1.232,3.179,0.479,2.898-0.776
					c-1.312-5.866-11.559-3.993-15.869-3.993c-6.745,0-13.491,0-20.237,0c-0.595,0-1.983,0.255-1.983,1.109c0,3.393,0,6.786,0,10.179
					c0,0.515,0.427,0.839,0.938,0.839c11.727,0,23.453,0,35.18,0c0.595,0,1.983-0.255,1.983-1.109c0-2.257,0-4.515,0-6.772
					C379.325,159.428,376.403,159.943,376.403,161.122z"/>
			</g>
		</g>
	</g>
				
	<g id="Door" stroke="#ffffff">
		<rect x="153" y="288" stroke-width="9" stroke-linecap="square" stroke-linejoin="round" stroke-miterlimit="10" width="360.506" height="146.216"/>
	</g>
				
	<g id="Inner_Door" stroke="#ffffff" fill="#ffffff">
		<line stroke-width="9" stroke-linecap="square" stroke-linejoin="round" stroke-miterlimit="10" x1="153" y1="432" x2="333" y2="324.75"/>	
		<line stroke-width="9" stroke-linecap="square" stroke-linejoin="round" stroke-miterlimit="10" x1="333" y1="324.75" x2="513" y2="432"/>
		<line stroke-width="4" stroke-linecap="square" stroke-linejoin="round" stroke-miterlimit="10" x1="333" y1="288" x2="333" y2="431.875"/>
		<line stroke-width="4" stroke-linecap="square" stroke-linejoin="round" stroke-miterlimit="10" x1="153" y1="324" x2="513" y2="324"/>
					
		<g stroke="#ffffff" fill="#ffffff">
			<path d="M162,314c0,0,0.158-0.088,0.465-0.258c0.307-0.165,0.761-0.436,1.354-0.73c1.187-0.614,2.927-1.474,5.142-2.428
				c2.215-0.979,4.904-2.044,7.989-3.153c1.542-0.579,3.184-1.071,4.914-1.658c1.73-0.568,3.55-1.056,5.448-1.626
				c1.898-0.544,3.876-1.004,5.923-1.539c2.047-0.512,4.163-0.921,6.338-1.407c4.351-0.866,8.938-1.672,13.685-2.277
				c2.373-0.371,4.786-0.573,7.228-0.821c1.221-0.122,2.45-0.244,3.684-0.368c1.235-0.074,2.476-0.149,3.722-0.225
				c4.983-0.352,10.046-0.502,15.108-0.506c5.063,0,10.125,0.191,15.108,0.531c1.246,0.082,2.487,0.132,3.722,0.239
				c1.234,0.122,2.463,0.244,3.684,0.365c2.442,0.234,4.855,0.464,7.228,0.829c4.746,0.604,9.334,1.415,13.685,2.284
				c2.175,0.486,4.291,0.882,6.338,1.406c2.047,0.534,4.024,0.982,5.923,1.536c3.797,1.069,7.277,2.172,10.362,3.271
				c3.085,1.103,5.774,2.164,7.989,3.138c1.107,0.477,2.096,0.919,2.957,1.339c0.859,0.397,1.592,0.771,2.185,1.076
				c0.593,0.292,1.048,0.562,1.354,0.726C323.842,313.913,324,314,324,314l1,0.551v1.425L324,316c0,0-2.531,0.061-6.961,0.167
				c-4.43,0.086-10.758,0.306-18.352,0.394c-7.594,0.083-16.453,0.268-25.945,0.306c-9.492,0.042-19.617,0.087-29.742,0.133
				c-10.125-0.045-20.25-0.09-29.742-0.132c-9.492-0.033-18.352-0.223-25.945-0.305c-7.594-0.086-13.922-0.309-18.352-0.395
				C164.531,316.062,162,316,162,316l-1-0.024v-1.421L162,314z"/>
		</g>
		<g stroke="#ffffff" fill="#ffffff">
			<path d="M342,314c0,0,0.158-0.088,0.465-0.258c0.307-0.165,0.762-0.436,1.354-0.73c1.187-0.614,2.927-1.474,5.142-2.428
				c2.215-0.979,4.904-2.044,7.989-3.153c1.542-0.579,3.184-1.071,4.914-1.658c1.73-0.568,3.55-1.056,5.448-1.626
				c1.898-0.544,3.876-1.004,5.923-1.539c2.047-0.512,4.163-0.921,6.338-1.407c4.351-0.866,8.938-1.672,13.685-2.277
				c2.373-0.371,4.785-0.573,7.229-0.821c1.221-0.122,2.449-0.244,3.684-0.368c1.234-0.074,2.476-0.149,3.722-0.225
				c4.983-0.352,10.046-0.502,15.108-0.506c5.063,0,10.125,0.191,15.108,0.531c1.246,0.082,2.487,0.132,3.722,0.239
				c1.234,0.122,2.463,0.244,3.684,0.365c2.443,0.234,4.855,0.464,7.229,0.829c4.746,0.604,9.334,1.415,13.685,2.284
				c2.175,0.486,4.291,0.882,6.338,1.406c2.047,0.534,4.024,0.982,5.923,1.536c3.797,1.069,7.277,2.172,10.362,3.271
				c3.085,1.103,5.774,2.164,7.989,3.138c1.107,0.477,2.096,0.919,2.957,1.339c0.859,0.397,1.592,0.771,2.185,1.076
				c0.593,0.292,1.048,0.562,1.354,0.726C503.842,313.913,504,314,504,314l1,0.551v1.425L504,316c0,0-2.531,0.061-6.961,0.167
				c-4.43,0.086-10.758,0.306-18.352,0.394c-7.594,0.083-16.453,0.268-25.945,0.306c-9.492,0.042-19.617,0.087-29.742,0.133
				c-10.125-0.045-20.25-0.09-29.742-0.132c-9.492-0.033-18.352-0.223-25.945-0.305c-7.594-0.086-13.922-0.309-18.352-0.395
				C344.531,316.062,342,316,342,316l-1-0.024v-1.421L342,314z"/>
		</g>
	</g>
				

</svg>